<svg xmlns="http://www.w3.org/2000/svg" viewBox="0 0 80.6 24" role="img" aria-label="MMS">
  <title>MMS</title>
  <path fill-rule="nonzero" fill="#4fe04f" fill-opacity="1" d="M 36.359375 13.230469 L 36.332031 23.125 L 30.300781 23.125 L 30.300781 5.277344 L 38.839844 5.277344 L 42.945312 13.699219 L 47.023438 5.277344 L 55.46875 5.277344 L 55.46875 23.125 L 49.550781 23.125 L 49.566406 13.230469 L 44.488281 22.820312 L 41.324219 22.820312 Z M 36.359375 13.230469 "/>
  <path fill-rule="nonzero" fill="#ff6600" fill-opacity="1" d="M 28.53125 5.617188 L 15.824219 11.347656 L 15.824219 20.226562 L 15.859375 20.226562 L 21.53125 16.699219 L 21.582031 23.460938 L 28.53125 23.460938 L 28.53125 14.886719 L 28.488281 14.859375 L 24.625 17.347656 L 27.207031 13.410156 L 24.519531 9.253906 L 28.53125 11.847656 Z M 28.53125 5.617188 "/>
  <path fill-rule="nonzero" fill="#4fe04f" fill-opacity="1" d="M 3.164062 6.71875 L 3.164062 23.125 L 9.199219 23.125 L 9.230469 16.699219 L 14.652344 20.226562 L 14.6875 20.226562 L 14.6875 11.355469 L 14.667969 11.355469 Z M 3.164062 6.71875 "/>
  <path fill-rule="nonzero" fill="#4fe04f" fill-opacity="1" d="M 11.390625 2.363281 L 15.546875 4.546875 L 7.003906 7.382812 L 2.226562 5.097656 Z M 11.390625 2.363281 "/>
  <path fill-rule="nonzero" fill="#ff6600" fill-opacity="1" d="M 21.019531 3.386719 L 27.53125 4.933594 L 23.738281 6.3125 L 17.160156 4.5625 Z M 21.019531 3.386719 "/>
  <path fill-rule="nonzero" fill="#4fe04f" fill-opacity="1" d="M 64.703125 5.277344 L 77.785156 5.277344 L 76.996094 10.25 L 64.011719 10.152344 C 62.949219 10.164062 62.945312 11.617188 64.027344 11.679688 L 72.507812 12.539062 C 75.492188 12.277344 77.589844 14.214844 77.621094 16.40625 L 77.652344 18.699219 C 77.699219 22.167969 74.890625 23.335938 70.515625 23.125 L 57.15625 23.125 L 57.15625 18.265625 L 70.1875 18.371094 C 72 18.496094 71.6875 16.796875 70.460938 16.75 L 61.265625 15.90625 C 59.003906 15.9375 57.382812 14.554688 57.203125 12.367188 C 57.121094 11.351562 57.082031 9.675781 57.289062 8.640625 C 57.757812 6.289062 58.949219 5.253906 64.703125 5.277344 Z M 64.703125 5.277344 "/>
</svg>
