<svg xmlns="http://www.w3.org/2000/svg" viewBox="0 0 80.6 33" role="img" aria-label="MMS Umzug Logo White">
  <title>MMS Umzug Logo White</title>
  <path fill-rule="nonzero" fill="#ffffff" fill-opacity="1" d="M 57.847656 30.191406 C 57.5625 30.304688 57.226562 30.398438 56.839844 30.464844 C 56.464844 30.535156 56.046875 30.570312 55.597656 30.570312 C 55.125 30.570312 54.695312 30.511719 54.296875 30.402344 C 53.910156 30.292969 53.570312 30.132812 53.285156 29.929688 C 53.003906 29.726562 52.785156 29.488281 52.625 29.203125 C 52.46875 28.917969 52.386719 28.601562 52.386719 28.25 C 52.386719 27.902344 52.46875 27.582031 52.625 27.292969 C 52.789062 27.011719 53.015625 26.765625 53.304688 26.566406 C 53.585938 26.367188 53.925781 26.210938 54.308594 26.101562 C 54.695312 25.992188 55.105469 25.941406 55.554688 25.941406 C 56.015625 25.941406 56.445312 25.992188 56.839844 26.101562 C 57.238281 26.207031 57.558594 26.347656 57.808594 26.523438 L 56.914062 27.292969 C 56.777344 27.171875 56.597656 27.074219 56.371094 26.996094 C 56.144531 26.917969 55.886719 26.878906 55.605469 26.878906 C 55.355469 26.878906 55.125 26.914062 54.921875 26.984375 C 54.710938 27.050781 54.527344 27.148438 54.375 27.273438 C 54.222656 27.390625 54.101562 27.535156 54.011719 27.707031 C 53.929688 27.871094 53.886719 28.050781 53.886719 28.25 C 53.886719 28.457031 53.925781 28.644531 54.003906 28.8125 C 54.082031 28.980469 54.191406 29.128906 54.339844 29.253906 C 54.496094 29.375 54.683594 29.46875 54.902344 29.539062 C 55.125 29.609375 55.382812 29.640625 55.671875 29.640625 C 55.832031 29.640625 55.992188 29.628906 56.140625 29.613281 C 56.289062 29.59375 56.425781 29.5625 56.554688 29.523438 L 56.554688 28.71875 L 55.4375 28.71875 L 55.4375 27.863281 L 57.847656 27.863281 Z M 57.847656 30.191406 "/>
  <path fill-rule="nonzero" fill="#ffffff" fill-opacity="1" d="M 50.023438 28.710938 C 50.023438 28.96875 49.960938 29.210938 49.84375 29.425781 C 49.730469 29.640625 49.566406 29.820312 49.351562 29.976562 C 49.136719 30.128906 48.871094 30.246094 48.566406 30.335938 C 48.265625 30.417969 47.929688 30.460938 47.558594 30.460938 C 47.183594 30.460938 46.839844 30.417969 46.539062 30.335938 C 46.238281 30.246094 45.980469 30.128906 45.769531 29.976562 C 45.5625 29.820312 45.398438 29.640625 45.285156 29.425781 C 45.171875 29.210938 45.117188 28.96875 45.117188 28.710938 L 45.117188 26.011719 L 46.488281 26.011719 L 46.488281 28.625 C 46.488281 28.746094 46.507812 28.859375 46.546875 28.960938 C 46.589844 29.066406 46.652344 29.164062 46.730469 29.25 C 46.820312 29.332031 46.929688 29.398438 47.0625 29.445312 C 47.203125 29.496094 47.371094 29.519531 47.566406 29.519531 C 47.761719 29.519531 47.925781 29.496094 48.054688 29.445312 C 48.195312 29.398438 48.3125 29.332031 48.398438 29.25 C 48.484375 29.164062 48.546875 29.066406 48.585938 28.960938 C 48.621094 28.859375 48.636719 28.746094 48.636719 28.625 L 48.636719 26.011719 L 50.023438 26.011719 Z M 50.023438 28.710938 "/>
  <path fill-rule="nonzero" fill="#ffffff" fill-opacity="1" d="M 38.191406 30.410156 L 38.191406 29.492188 L 40.90625 26.914062 L 38.257812 26.914062 L 38.257812 26.011719 L 42.632812 26.011719 L 42.632812 26.863281 L 39.851562 29.492188 L 42.691406 29.492188 L 42.691406 30.410156 Z M 38.191406 30.410156 "/>
  <path fill-rule="nonzero" fill="#ffffff" fill-opacity="1" d="M 34.394531 30.363281 L 34.425781 27.347656 L 34.402344 27.347656 L 33.050781 30.363281 L 32.175781 30.363281 L 30.859375 27.347656 L 30.835938 27.347656 L 30.867188 30.363281 L 29.6875 30.363281 L 29.6875 26.105469 L 31.46875 26.105469 L 32.648438 28.835938 L 32.679688 28.835938 L 33.804688 26.105469 L 35.617188 26.105469 L 35.617188 30.363281 Z M 34.394531 30.363281 "/>
  <path fill-rule="nonzero" fill="#ffffff" fill-opacity="1" d="M 26.90625 28.773438 C 26.90625 29.03125 26.847656 29.273438 26.730469 29.492188 C 26.621094 29.703125 26.453125 29.886719 26.238281 30.042969 C 26.019531 30.199219 25.761719 30.316406 25.453125 30.402344 C 25.148438 30.484375 24.816406 30.53125 24.441406 30.53125 C 24.066406 30.53125 23.726562 30.484375 23.425781 30.402344 C 23.125 30.316406 22.867188 30.195312 22.660156 30.042969 C 22.449219 29.886719 22.285156 29.703125 22.171875 29.492188 C 22.058594 29.273438 22 29.03125 22 28.773438 L 22 26.058594 L 23.378906 26.058594 L 23.378906 28.6875 C 23.378906 28.804688 23.398438 28.914062 23.433594 29.023438 C 23.472656 29.128906 23.539062 29.226562 23.617188 29.3125 C 23.703125 29.394531 23.816406 29.460938 23.949219 29.511719 C 24.089844 29.558594 24.257812 29.585938 24.449219 29.585938 C 24.644531 29.585938 24.808594 29.558594 24.945312 29.511719 C 25.085938 29.460938 25.195312 29.394531 25.28125 29.3125 C 25.371094 29.226562 25.433594 29.128906 25.46875 29.023438 C 25.507812 28.914062 25.527344 28.804688 25.527344 28.6875 L 25.527344 26.058594 L 26.90625 26.058594 Z M 26.90625 28.773438 "/>
  <path fill-rule="nonzero" fill="#ffffff" fill-opacity="1" d="M 36.359375 13.230469 L 36.332031 23.125 L 30.300781 23.125 L 30.300781 5.277344 L 38.839844 5.277344 L 42.945312 13.699219 L 47.023438 5.277344 L 55.46875 5.277344 L 55.46875 23.125 L 49.550781 23.125 L 49.566406 13.230469 L 44.488281 22.820312 L 41.324219 22.820312 Z M 36.359375 13.230469 "/>
  <path fill-rule="nonzero" fill="#ffffff" fill-opacity="1" d="M 28.53125 5.617188 L 15.824219 11.347656 L 15.824219 20.226562 L 15.859375 20.226562 L 21.53125 16.699219 L 21.582031 23.460938 L 28.53125 23.460938 L 28.53125 14.886719 L 28.488281 14.859375 L 24.625 17.347656 L 27.207031 13.410156 L 24.519531 9.253906 L 28.53125 11.847656 Z M 28.53125 5.617188 "/>
  <path fill-rule="nonzero" fill="#ffffff" fill-opacity="1" d="M 3.164062 6.71875 L 3.164062 23.125 L 9.199219 23.125 L 9.230469 16.699219 L 14.652344 20.226562 L 14.6875 20.226562 L 14.6875 11.355469 L 14.667969 11.355469 Z M 3.164062 6.71875 "/>
  <path fill-rule="nonzero" fill="#ffffff" fill-opacity="1" d="M 11.390625 2.363281 L 15.546875 4.546875 L 7.003906 7.382812 L 2.226562 5.097656 Z M 11.390625 2.363281 "/>
  <path fill-rule="nonzero" fill="#ffffff" fill-opacity="1" d="M 21.019531 3.386719 L 27.53125 4.933594 L 23.738281 6.3125 L 17.160156 4.5625 Z M 21.019531 3.386719 "/>
  <path fill-rule="nonzero" fill="#ffffff" fill-opacity="1" d="M 64.703125 5.277344 L 77.785156 5.277344 L 76.996094 10.25 L 64.011719 10.152344 C 62.949219 10.164062 62.945312 11.617188 64.027344 11.679688 L 72.507812 12.539062 C 75.492188 12.277344 77.589844 14.214844 77.621094 16.40625 L 77.652344 18.699219 C 77.699219 22.167969 74.890625 23.335938 70.515625 23.125 L 57.15625 23.125 L 57.15625 18.265625 L 70.1875 18.371094 C 72 18.496094 71.6875 16.796875 70.460938 16.75 L 61.265625 15.90625 C 59.003906 15.9375 57.382812 14.554688 57.203125 12.367188 C 57.121094 11.351562 57.082031 9.675781 57.289062 8.640625 C 57.757812 6.289062 58.949219 5.253906 64.703125 5.277344 Z M 64.703125 5.277344 "/>
</svg>
